#!OML:ASF F:\VICON\USERDATA\INSTALL\rory3\rory3.ASF
:FULLY-SPECIFIED
:DEGREES
52
root 0.7723517009122578 17.916189398896588 22.04220559944886 -1.9661156965289017 1.753307284408114 1.819419708983438
lfemur 1.728967164875371 -3.574897655983703 -27.32520782655119
ltibia 23.001593196926546
lfoot -0.6555820712046474 -3.829367317806323
ltoes -4.023052911750909
rfemur -28.00845726817548 0.7478708033099029 21.343249642155236
rtibia 37.648192432675856
rfoot -2.3480272002919804 -13.116865515088657
rtoes 2.136224972716645
lowerback 9.894136854665614 -0.8706212960853955 -2.3848366321454257
upperback 0.3583407713894363 -1.4686860518820999 1.0695709191929748
thorax -4.899153853750811 -0.7375355081156368 3.1806647251019755
lowerneck -16.744489863896202 -2.7849375572193886 -4.2097426131741695
upperneck 21.910240083481035 -3.3458433293781527 1.505742665909912
head 9.616927290461176 -1.6282855666973486 0.7122922167331656
lclavicle -2.7980879365393694e-15 -4.166136191809454e-16
lhumerus -24.717454921854554 -4.038951861903857 82.76718374258007
lradius 27.543195049367725
lwrist 6.325603895587718
lhand -28.27776664205849 23.952332615073438
lfingers 7.1250199999999975
lthumb -1.6750215228453014 53.99922283595797
rclavicle -2.7965291978282484e-15 -4.1556160244219217e-16
rhumerus -29.86944671839922 -18.732259422921615 -78.30182365852095
rradius 24.471115335713257
rwrist 5.245567514019851
rhand -17.075773620528526 22.36409535794688
rfingers 7.1250199999999975
rthumb 8.978630301819296 -7.077339487717483
53
root 0.7338831725104632 17.91056528144202 22.925638475582318 -1.2163329899000752 2.224453948425782 2.1825556140688387
lfemur 5.40698945462074 -3.2470072556880663 -27.493057187370116
ltibia 18.864835028795127
lfoot 0.6624685565878288 -5.369583137285538
ltoes -4.375420453879068
rfemur -27.542530840485693 2.9834541071684946 20.127445758136997
rtibia 28.735418266944666
rfoot -1.911037075403173 -15.260074600011226
rtoes 1.4381390823669689
lowerback 9.380818812624113 -1.0958221088024591 -3.088060426258961
upperback 0.21881158236544854 -1.84555956486107 1.170941256926628
thorax -4.645799944555401 -0.8991537520267349 3.7448974514494684
lowerneck -16.872728414136972 -2.7426026034395306 -4.210506635302915
upperneck 21.889530038680746 -3.286414928446905 1.44526392033604
head 9.616726348518542 -1.609878698480072 0.7200038693959461
lclavicle -2.8004472247916114e-15 -4.181896246071466e-16
lhumerus -23.22425966337267 -4.602842121164749 82.40160978222897
lradius 28.98267916622481
lwrist 6.477899907040319
lhand -28.43716965021815 24.07230616114755
lfingers 7.1250199999999975
lthumb -1.8086114140618634 54.39905634724986
rclavicle -2.7961251156187766e-15 -4.1529209421992006e-16
rhumerus -30.222358147285167 -20.08861919957872 -77.54245998437489
rradius 23.40496547777268
rwrist 6.365381447918187
rhand -17.16052591692881 22.493071335529898
rfingers 7.1250199999999975
rthumb 8.98169775701741 -6.896167444199017
54
root 0.6692493688820074 17.87675198350299 23.809098517657745 -0.6551234727942492 2.664909983446292 2.0991619542656506
lfemur 8.88446978609738 -3.2706368274286297 -27.2498263939671
ltibia 15.761461145358512
lfoot 1.2816350959599072 -7.598624912590298
ltoes -4.599045915461354
rfemur -26.74327678721962 5.170421080752953 19.24452436248209
rtibia 22.303361182393196
rfoot -3.8736567070624233 -16.79211211925482
rtoes -1.3042999354188258
lowerback 9.126159459210152 -1.2807284211443197 -3.2987247865278846
upperback 0.09283121089428537 -2.1132525558412936 1.3743731384203914
thorax -4.515867268131261 -0.9955081184548321 4.038403909505406
lowerneck -16.97490372571404 -2.6943145038449914 -4.137138578033527
upperneck 21.922953513847958 -3.2081433489263627 1.275317642119344
head 9.64883742655066 -1.5821823969004254 0.6831459112865772
lclavicle -2.798950202737246e-15 -4.1719249788991193e-16
lhumerus -22.176741766623863 -4.870603213435056 82.15857487712468
lradius 30.261454609878378
lwrist 6.940283863651821
lhand -28.35244893235334 23.63097624380735
lfingers 7.1250199999999975
lthumb -1.7106628121701761 54.03609680210777
rclavicle -2.796220241942709e-15 -4.1535550790990507e-16
rhumerus -30.476709387997325 -21.523745216672925 -76.69152775635573
rradius 22.161181730507046
rwrist 7.973125152245863
rhand -17.174206045416256 22.54650020052472
rfingers 7.1250199999999975
rthumb 9.013186811053059 -6.945451950810056
55
root 0.5972322849653815 17.798664824294313 24.927496380807952 -0.3631362394427815 3.2056520010854905 2.377620071850551
lfemur 11.20527551676188 -4.105449173000948 -27.240501317556525
ltibia 15.686291054671536
lfoot 1.6699162025854148 -9.619442301589325
ltoes -3.7265026762630096
rfemur -26.261453919082797 5.588848552275187 19.24327663120199
rtibia 20.354135888256803
rfoot -5.785326992421766 -14.742815081612312
rtoes -3.0205940189386546
lowerback 9.129561218708819 -1.4252276684914205 -3.6279416207876594
upperback 0.0719776183162737 -2.3264453736033786 1.5341037185555988
thorax -4.476489600770498 -1.0920564642736008 4.30723983772175
lowerneck -17.05407553778335 -2.670183049872822 -4.101827922316459
upperneck 21.901126388598076 -3.173108781585093 1.140706389122229
head 9.645306142483571 -1.5669900829366399 0.6612313788078074
lclavicle -2.799270783683948e-15 -4.174073369869842e-16
lhumerus -21.67657439481528 -4.907259438778369 82.15133863405393
lradius 31.164431245282465
lwrist 7.1343850022042
lhand -28.42151203728997 23.26931017076946
lfingers 7.1250199999999975
lthumb -1.775774749335568 53.60096786757267
rclavicle -2.7979026204749892e-15 -4.1647766528804003e-16
rhumerus -30.615073014869548 -22.846543100087253 -75.92084436449733
rradius 20.958425525649872
rwrist 9.57959666218964
rhand -17.27426334419995 22.596225253438003
rfingers 7.1250199999999975
rthumb 8.956412211114179 -7.023882392971144
56
root 0.5105042751378585 17.728547930206986 25.879987133078608 -0.5009040188990068 3.186535974118403 1.939850892724238
lfemur 12.408008572769226 -5.125524955096319 -26.629054622409512
ltibia 19.077155922626726
lfoot 2.8457998537954827 -10.901168006341129
ltoes -2.5158643041873914
rfemur -25.889795287555675 4.348857135575727 21.310086756361606
rtibia 22.42065406350525
rfoot -5.7052717807764886 -11.103839001890185
rtoes -2.511837657095461
lowerback 9.283178014141567 -1.4233606598669173 -3.244973323373313
upperback 0.14727548951875735 -2.3331938092937166 1.8315643237864148
thorax -4.476791933604215 -1.1128526295131085 4.363842877349929
lowerneck -17.068643661903536 -2.6384543436770054 -4.045000732862418
upperneck 21.955062752373983 -3.113047953557632 0.9515604312928213
head 9.673049081178455 -1.5505653864082407 0.6242764084314724
lclavicle -2.7983924499866435e-15 -4.1681924878406535e-16
lhumerus -21.955609117809452 -4.337212988011136 82.319842247155
lradius 31.55413461671053
lwrist 7.093609327860623
lhand -28.928741178704996 22.86593740026358
lfingers 7.1250199999999975
lthumb -2.2122242555189744 52.98363835639604
rclavicle -2.7959492232185554e-15 -4.1517470380621067e-16
rhumerus -30.680488718510645 -24.20087771815807 -74.98446104444803
rradius 19.86452331249548
rwrist 11.795620575329764
rhand -17.425627063606793 22.540816597746286
rfingers 7.1250199999999975
rthumb 8.847204343243824 -7.339968335520872
57
root 0.41363253645598624 17.724258161297186 26.956102607750026 -0.9448623759950645 3.0899891875578493 0.9256758575137205
lfemur 11.767833425579827 -5.460611209097912 -25.115598725589564
ltibia 25.8210999785425
lfoot 5.250057089913601 -12.30316276224242
ltoes -0.4595851364759511
rfemur -24.924890819122034 3.817955949235552 23.61704330967904
rtibia 24.96001708371777
rfoot -4.994489899141023 -7.916803966925411
rtoes 1.3607219236043981
lowerback 9.395232916274695 -1.4049339794593574 -2.3410605114512375
upperback 0.18009986160674035 -2.1884383270587726 2.229918341499305
thorax -4.529657537249746 -1.0622054109109746 4.262189979653816
lowerneck -16.91989793296975 -2.5882435334844076 -4.021775900878939
upperneck 22.068491169348814 -3.0270995813894697 0.7556322615584415
head 9.700357457852292 -1.5278756231002273 0.5982485669803002
lclavicle -2.7998202314762697e-15 -4.177722796032595e-16
lhumerus -23.187472449177122 -3.2477010798828934 82.62198669155387
lradius 31.40510822518827
lwrist 7.048834442841546
lhand -29.13697357282225 23.046689707031987
lfingers 7.1250199999999975
lthumb -2.3870319233693302 52.96206558616203
rclavicle -2.796403347664993e-15 -4.154775831663522e-16
rhumerus -30.916861636756785 -25.46280823191789 -74.00247311129502
rradius 19.109230080528906
rwrist 14.089803401303513
rhand -17.511879035427107 22.46050803001276
rfingers 7.1250199999999975
rthumb 8.764502332064138 -7.4564449584136945
